<svg height="512" viewBox="0 0 64 64" width="512" xmlns="http://www.w3.org/2000/svg"><g id="hospital-doctor-virus-covid19-coronavirus"><path d="m44 27h14v30h-14z" fill="#9bc9ff"/><path d="m56 27v16a13.991 13.991 0 0 1 -12 13.841v.159h14v-30z" fill="#85bdff"/><path d="m20 19h24v38h-24z" fill="#57a4ff"/><path d="m42 19v14a24 24 0 0 1 -22 23.911v.089h24v-38z" fill="#2488ff"/><path d="m6 27h14v30h-14z" fill="#a4ceff"/><path d="m18 27v16a13.991 13.991 0 0 1 -12 13.841v.159h14v-30z" fill="#9bc9ff"/><path d="m23 15h-5v4h2 3z" fill="#ff6243"/><path d="m44 19h2v-4h-5v4z" fill="#ff6243"/><path d="m44 57h-7-5-5-7-14-3v4h58v-4h-3z" fill="#005ece"/><path d="m27 47h5v10h-5z" fill="#a7a9ac"/><path d="m32 47h5v10h-5z" fill="#939598"/><g fill="#f1f2f2"><path d="m26 39h4v4h-4z"/><path d="m34 39h4v4h-4z"/><path d="m26 32h4v4h-4z"/><path d="m34 32h4v4h-4z"/><path d="m26 25h4v4h-4z"/><path d="m34 25h4v4h-4z"/><path d="m49 38h4v4h-4z"/><path d="m49 45h4v4h-4z"/><path d="m49 31h4v4h-4z"/><path d="m11 38h4v4h-4z"/><path d="m11 45h4v4h-4z"/><path d="m11 31h4v4h-4z"/></g><path d="m23 3h18v18h-18z" fill="#ffcd00"/><path d="m39 3a18 18 0 0 1 -16 17.883v.117h18v-18z" fill="#ebbf00"/><path d="m30 17h4v-3h3v-4h-3v-3h-4v3h-3v4h3z" fill="#ed1c24"/><path d="m58 27h2v-4h-16v4z" fill="#ff6243"/><path d="m20 23h-16v4h2 14z" fill="#ff6243"/><path d="m48 54h6a1 1 0 0 0 0-2h-6a1 1 0 0 0 0 2z" fill="#f1f2f2"/><path d="m16 52h-6a1 1 0 0 0 0 2h6a1 1 0 0 0 0-2z" fill="#f1f2f2"/><rect fill="#f1f2f2" height="2" rx="1" width="14" x="25" y="46"/></g></svg>